<svg xmlns="http://www.w3.org/2000/svg" width="1920" height="168" viewBox="0 0 1920 168" fill="none"><path fill-rule="evenodd" clip-rule="evenodd" d="M1920 168V71C1873.26 80.26 1817.52 58.41 1769 67.55C1720.87 76.61 1678.61 118.28 1628.49 125.55C1579.85 132.64 1525.05 105.19 1474.72 110.55C1425.72 115.78 1379.63 154.05 1329.18 157.55C1279.89 160.99 1227.77 129.61 1177.27 131.34C1127.81 133.04 1078.52 167.94 1028.05 167.94C977.58 167.94 928.3 133.04 878.84 131.34C828.35 129.61 776.23 160.99 726.94 157.55C676.5 154.03 630.42 115.77 581.4 110.55C531.07 105.18 476.28 132.63 427.64 125.55C377.51 118.24 335.25 76.55 287.12 67.55C237.3 58.18 179.93 81.02 132.47 69.87C83.4 58.36 46.11 13.77 0 0V168H1920Z" fill="white"></path></svg>