<svg xmlns="http://www.w3.org/2000/svg" width="1920" height="169" viewBox="0 0 1920 169" fill="none"><path fill-rule="evenodd" clip-rule="evenodd" d="M1920 0V97.9399C1873.26 88.6799 1817.52 110.53 1768.95 101.39C1720.82 92.3299 1678.56 50.6699 1628.44 43.3899C1579.8 36.2999 1525 63.7499 1474.67 58.3899C1425.67 53.1599 1379.58 14.8899 1329.13 11.3899C1279.84 7.94989 1227.72 39.33 1177.22 37.6C1127.76 35.9 1078.47 1 1028 1C977.53 1 928.25 35.9 878.79 37.6C828.3 39.33 776.18 7.94989 726.9 11.3899C676.45 14.9099 630.37 53.1699 581.35 58.3899C531.02 63.7599 476.23 36.3099 427.59 43.3899C377.46 50.6999 335.2 92.3899 287.07 101.39C237.25 110.76 179.88 87.9199 132.42 99.0699C83.42 110.58 46.11 155.17 0 168.94V0.5L1920 0Z" fill="white"></path></svg>