<svg xmlns="http://www.w3.org/2000/svg" width="1920" height="168" viewBox="0 0 1920 168" fill="none"><path fill-rule="evenodd" clip-rule="evenodd" d="M0 168V71C46.74 80.26 102.48 58.41 151.05 67.55C199.18 76.61 241.44 118.27 291.56 125.55C340.2 132.64 395 105.19 445.33 110.55C494.33 115.78 540.42 154.05 590.87 157.55C640.16 160.99 692.28 129.61 742.78 131.34C792.24 133.04 841.53 167.94 892 167.94C942.47 167.94 991.75 133.04 1041.21 131.34C1091.7 129.61 1143.82 160.99 1193.1 157.55C1243.55 154.03 1289.63 115.77 1338.65 110.55C1388.98 105.18 1443.77 132.63 1492.41 125.55C1542.54 118.24 1584.8 76.55 1632.93 67.55C1682.75 58.18 1740.12 81.02 1787.58 69.87C1836.58 58.36 1873.89 13.77 1920 0V168H0Z" fill="white"></path></svg>